<svg id="Layer_1" data-name="Layer 1" xmlns="http://www.w3.org/2000/svg" viewBox="0 0 193.32 51.11"><defs><style>.cls-1{fill:#4a5366;}.cls-2{fill:#46db83;}.cls-3{fill:#fff;}</style></defs><title>VidyardHLogo__Full</title><path class="cls-1" d="M201.7,29a1.75,1.75,0,0,0-1.7,1.7v7.8a9.91,9.91,0,0,0-6.7-2.5,10.1,10.1,0,1,0,10.1,10.1V30.7A1.69,1.69,0,0,0,201.7,29ZM200,46.1a6.7,6.7,0,1,1-6.7-6.7A6.7,6.7,0,0,1,200,46.1Z" transform="translate(-17.98 -17.91)"/><path class="cls-1" d="M167.9,46.1a10.1,10.1,0,1,0-10.1,10.1,10.43,10.43,0,0,0,6.7-2.5v.8a1.7,1.7,0,1,0,3.4,0V46.1Zm-10.1,6.7a6.7,6.7,0,1,1,6.7-6.7A6.7,6.7,0,0,1,157.8,52.8Z" transform="translate(-17.98 -17.91)"/><path class="cls-1" d="M142.6,36a1.75,1.75,0,0,0-1.7,1.7v8.4a6.7,6.7,0,1,1-13.4,0V37.7a1.7,1.7,0,1,0-3.4,0v8.4a10,10,0,0,0,8.4,9.9v5.4a1.7,1.7,0,1,0,3.4,0V56a10.08,10.08,0,0,0,8.4-9.9V37.7A1.75,1.75,0,0,0,142.6,36Z" transform="translate(-17.98 -17.91)"/><path class="cls-1" d="M183.2,37.4c0-.1,0-.1-.1-.2a1.61,1.61,0,0,0-.4-.7,1.76,1.76,0,0,0-.5-.4,1.48,1.48,0,0,0-.7-.1h0a10.22,10.22,0,0,0-7.2,3,9.9,9.9,0,0,0-2.9,7.1v8.4a1.7,1.7,0,1,0,3.4,0V46.1a6.7,6.7,0,0,1,6.7-6.7,1.75,1.75,0,0,0,1.7-1.7Z" transform="translate(-17.98 -17.91)"/><path class="cls-1" d="M95.2,36a1.75,1.75,0,0,0-1.7,1.7V54.5a1.7,1.7,0,1,0,3.4,0V37.7A1.69,1.69,0,0,0,95.2,36Z" transform="translate(-17.98 -17.91)"/><path class="cls-1" d="M89.1,36.2h0a1.71,1.71,0,0,0-2.3.8L79.9,50.7,73,37a1.72,1.72,0,0,0-3.1,1.5l8.4,16.8a1.65,1.65,0,0,0,1.5.9,1.86,1.86,0,0,0,1.5-.9l8.4-16.8A1.55,1.55,0,0,0,89.1,36.2Z" transform="translate(-17.98 -17.91)"/><path class="cls-1" d="M118.9,29a1.75,1.75,0,0,0-1.7,1.7v7.8a9.91,9.91,0,0,0-6.7-2.5,10.1,10.1,0,1,0,10.1,10.1V30.7A1.75,1.75,0,0,0,118.9,29Zm-1.7,17.1a6.7,6.7,0,1,1-6.7-6.7A6.7,6.7,0,0,1,117.2,46.1Z" transform="translate(-17.98 -17.91)"/><path class="cls-1" d="M41.1,24.6a21,21,0,0,1,5.1.6.83.83,0,0,0,1-.5h0a.9.9,0,0,0-.6-1.2,25.1,25.1,0,0,0-5.5-.7,23.52,23.52,0,0,0-5.4.6.9.9,0,0,0-.6,1.2h0c.2.4.6.7,1,.5A27.34,27.34,0,0,1,41.1,24.6Z" transform="translate(-17.98 -17.91)"/><path class="cls-1" d="M52.1,27h0a.81.81,0,0,0,.4.9,21.32,21.32,0,1,1-22.8-.1.81.81,0,0,0,.4-.9h0a.84.84,0,0,0-1.3-.6A23.37,23.37,0,0,0,18,47,23.11,23.11,0,1,0,53.4,26.4.88.88,0,0,0,52.1,27Z" transform="translate(-17.98 -17.91)"/><path class="cls-2" d="M45.9,33.1a19.7,19.7,0,0,0-3.4-.4H41.1a18.4,18.4,0,0,0-4.1.4,23.81,23.81,0,0,0-8.2,3,30.35,30.35,0,0,0-4.6,3.4,1.9,1.9,0,0,0-.5,1.3L26,58.3a19.43,19.43,0,0,0,30.2,0l.3-2.7a6.5,6.5,0,0,0,3.4-5.9,6.63,6.63,0,0,0-2-4.9l.5-4.2a1.57,1.57,0,0,0-.4-1.3,24,24,0,0,0-6.8-4.6A27.37,27.37,0,0,0,45.9,33.1ZM39,54.5a5.45,5.45,0,0,1-2.2.5,5,5,0,0,1-4.9-5.3,5,5,0,0,1,4.9-5.3A4.72,4.72,0,0,1,40,45.6a5.35,5.35,0,0,1,1.7,4.1A5.23,5.23,0,0,1,39,54.5Zm17,0a5.45,5.45,0,0,1-2.2.5,5,5,0,0,1-4.9-5.3,5,5,0,0,1,4.9-5.3A4.72,4.72,0,0,1,57,45.6a5.35,5.35,0,0,1,1.7,4.1A5.43,5.43,0,0,1,56,54.5Z" transform="translate(-17.98 -17.91)"/><path class="cls-1" d="M33.1,33.9c-.5-3.5-1.1-7.1-1.6-10a2.83,2.83,0,0,1-3-2.2A3.09,3.09,0,0,1,30.7,18a3,3,0,0,1,3.6,2.2,2.91,2.91,0,0,1-1.5,3.4L36.4,33h0l-3.3.9Z" transform="translate(-17.98 -17.91)"/><path class="cls-1" d="M45.9,33.1l3.6-9.4A2.91,2.91,0,0,1,48,20.3a3,3,0,0,1,3.7-2.1,3,3,0,0,1-.9,5.8c-.5,2.9-1,6.5-1.6,10h0a20.25,20.25,0,0,0-3.3-.9Z" transform="translate(-17.98 -17.91)"/><path class="cls-3" d="M39,54.5a5.45,5.45,0,0,1-2.2.5,5,5,0,0,1-4.9-5.3,5,5,0,0,1,4.9-5.3A4.72,4.72,0,0,1,40,45.6a5.35,5.35,0,0,1,1.7,4.1A5.23,5.23,0,0,1,39,54.5Z" transform="translate(-17.98 -17.91)"/><path class="cls-3" d="M56,54.5a5.45,5.45,0,0,1-2.2.5,5,5,0,0,1-4.9-5.3,5,5,0,0,1,4.9-5.3A4.72,4.72,0,0,1,57,45.6a5.35,5.35,0,0,1,1.7,4.1A5.43,5.43,0,0,1,56,54.5Z" transform="translate(-17.98 -17.91)"/><path class="cls-1" d="M54.1,47.9a1.46,1.46,0,0,0-1.3-.7,1.57,1.57,0,0,0-1.3.7h0a3.49,3.49,0,0,0,0,3.6,2,2,0,0,0,1.3.8,1.57,1.57,0,0,0,1.3-.7,2.79,2.79,0,0,0,.6-1.8A3.29,3.29,0,0,0,54.1,47.9Zm-.9,1.5a.6.6,0,1,1,.6-.6A.58.58,0,0,1,53.2,49.4Z" transform="translate(-17.98 -17.91)"/><path class="cls-1" d="M37.1,47.9a1.46,1.46,0,0,0-1.3-.7,1.57,1.57,0,0,0-1.3.7h0a3.49,3.49,0,0,0,0,3.6,2,2,0,0,0,1.3.8,1.57,1.57,0,0,0,1.3-.7,2.79,2.79,0,0,0,.6-1.8A3.29,3.29,0,0,0,37.1,47.9Zm-.9,1.5a.6.6,0,1,1,.6-.6A.58.58,0,0,1,36.2,49.4Z" transform="translate(-17.98 -17.91)"/><path class="cls-1" d="M209,32.7a1,1,0,0,0,.6-.9c0-.7-.5-1.1-1.3-1.1h-1.1a.43.43,0,0,0-.4.4v2.3a.4.4,0,1,0,.8,0v-.6h.4l.7.8c.1.1.2.2.3.2a.43.43,0,0,0,.4-.4.37.37,0,0,0-.1-.3Zm-.8-.5h-.6v-.7h.6c.3,0,.5.1.5.4C208.7,32,208.5,32.2,208.2,32.2Z" transform="translate(-17.98 -17.91)"/><path class="cls-1" d="M208.1,35.5a3.2,3.2,0,1,1,3.2-3.2A3.36,3.36,0,0,1,208.1,35.5Zm0-5.9a2.7,2.7,0,1,0,2.6,2.7A2.67,2.67,0,0,0,208.1,29.6Z" transform="translate(-17.98 -17.91)"/></svg>